<svg width="32" height="32" viewBox="0 0 32 32" fill="none" xmlns="http://www.w3.org/2000/svg">
<g clip-path="url(#clip0_4_60)">
<rect width="32" height="32" rx="5" fill="#808080" fill-opacity="0.05"/>
<path d="M16 16C14.9 16 13.9583 15.6083 13.175 14.825C12.3917 14.0417 12 13.1 12 12C12 10.9 12.3917 9.95833 13.175 9.175C13.9583 8.39167 14.9 8 16 8C17.1 8 18.0417 8.39167 18.825 9.175C19.6083 9.95833 20 10.9 20 12C20 13.1 19.6083 14.0417 18.825 14.825C18.0417 15.6083 17.1 16 16 16ZM8 22V21.2C8 20.6333 8.146 20.1127 8.438 19.638C8.73 19.1633 9.11733 18.8007 9.6 18.55C10.6333 18.0333 11.6833 17.646 12.75 17.388C13.8167 17.13 14.9 17.0007 16 17C17.1 16.9993 18.1833 17.1287 19.25 17.388C20.3167 17.6473 21.3667 18.0347 22.4 18.55C22.8833 18.8 23.271 19.1627 23.563 19.638C23.855 20.1133 24.0007 20.634 24 21.2V22C24 22.55 23.8043 23.021 23.413 23.413C23.0217 23.805 22.5507 24.0007 22 24H10C9.45 24 8.97933 23.8043 8.588 23.413C8.19667 23.0217 8.00067 22.5507 8 22Z" fill="url(#paint0_linear_4_60)"/>
<g filter="url(#filter0_dddddddd_4_60)">
<rect y="32" width="32" height="1" fill="#6400FF"/>
</g>
</g>
<defs>
<filter id="filter0_dddddddd_4_60" x="-31" y="1" width="94" height="63" filterUnits="userSpaceOnUse" color-interpolation-filters="sRGB">
<feFlood flood-opacity="0" result="BackgroundImageFix"/>
<feColorMatrix in="SourceAlpha" type="matrix" values="0 0 0 0 0 0 0 0 0 0 0 0 0 0 0 0 0 0 127 0" result="hardAlpha"/>
<feOffset/>
<feGaussianBlur stdDeviation="0.475293"/>
<feColorMatrix type="matrix" values="0 0 0 0 0.392157 0 0 0 0 0 0 0 0 0 1 0 0 0 0.190625 0"/>
<feBlend mode="normal" in2="BackgroundImageFix" result="effect1_dropShadow_4_60"/>
<feColorMatrix in="SourceAlpha" type="matrix" values="0 0 0 0 0 0 0 0 0 0 0 0 0 0 0 0 0 0 127 0" result="hardAlpha"/>
<feOffset/>
<feGaussianBlur stdDeviation="0.896094"/>
<feColorMatrix type="matrix" values="0 0 0 0 0.392157 0 0 0 0 0 0 0 0 0 1 0 0 0 0.325 0"/>
<feBlend mode="normal" in2="effect1_dropShadow_4_60" result="effect2_dropShadow_4_60"/>
<feColorMatrix in="SourceAlpha" type="matrix" values="0 0 0 0 0 0 0 0 0 0 0 0 0 0 0 0 0 0 127 0" result="hardAlpha"/>
<feOffset/>
<feGaussianBlur stdDeviation="1.49854"/>
<feColorMatrix type="matrix" values="0 0 0 0 0.392157 0 0 0 0 0 0 0 0 0 1 0 0 0 0.421875 0"/>
<feBlend mode="normal" in2="effect2_dropShadow_4_60" result="effect3_dropShadow_4_60"/>
<feColorMatrix in="SourceAlpha" type="matrix" values="0 0 0 0 0 0 0 0 0 0 0 0 0 0 0 0 0 0 127 0" result="hardAlpha"/>
<feOffset/>
<feGaussianBlur stdDeviation="2.51875"/>
<feColorMatrix type="matrix" values="0 0 0 0 0.392157 0 0 0 0 0 0 0 0 0 1 0 0 0 0.5 0"/>
<feBlend mode="normal" in2="effect3_dropShadow_4_60" result="effect4_dropShadow_4_60"/>
<feColorMatrix in="SourceAlpha" type="matrix" values="0 0 0 0 0 0 0 0 0 0 0 0 0 0 0 0 0 0 127 0" result="hardAlpha"/>
<feOffset/>
<feGaussianBlur stdDeviation="4.19287"/>
<feColorMatrix type="matrix" values="0 0 0 0 0.392157 0 0 0 0 0 0 0 0 0 1 0 0 0 0.578125 0"/>
<feBlend mode="normal" in2="effect4_dropShadow_4_60" result="effect5_dropShadow_4_60"/>
<feColorMatrix in="SourceAlpha" type="matrix" values="0 0 0 0 0 0 0 0 0 0 0 0 0 0 0 0 0 0 127 0" result="hardAlpha"/>
<feOffset/>
<feGaussianBlur stdDeviation="6.75703"/>
<feColorMatrix type="matrix" values="0 0 0 0 0.392157 0 0 0 0 0 0 0 0 0 1 0 0 0 0.675 0"/>
<feBlend mode="normal" in2="effect5_dropShadow_4_60" result="effect6_dropShadow_4_60"/>
<feColorMatrix in="SourceAlpha" type="matrix" values="0 0 0 0 0 0 0 0 0 0 0 0 0 0 0 0 0 0 127 0" result="hardAlpha"/>
<feOffset/>
<feGaussianBlur stdDeviation="10.4474"/>
<feColorMatrix type="matrix" values="0 0 0 0 0.392157 0 0 0 0 0 0 0 0 0 1 0 0 0 0.809375 0"/>
<feBlend mode="normal" in2="effect6_dropShadow_4_60" result="effect7_dropShadow_4_60"/>
<feColorMatrix in="SourceAlpha" type="matrix" values="0 0 0 0 0 0 0 0 0 0 0 0 0 0 0 0 0 0 127 0" result="hardAlpha"/>
<feOffset/>
<feGaussianBlur stdDeviation="15.5"/>
<feColorMatrix type="matrix" values="0 0 0 0 0.392157 0 0 0 0 0 0 0 0 0 1 0 0 0 1 0"/>
<feBlend mode="normal" in2="effect7_dropShadow_4_60" result="effect8_dropShadow_4_60"/>
<feBlend mode="normal" in="SourceGraphic" in2="effect8_dropShadow_4_60" result="shape"/>
</filter>
<linearGradient id="paint0_linear_4_60" x1="16" y1="8" x2="16" y2="24" gradientUnits="userSpaceOnUse">
<stop stop-color="#3C0099"/>
<stop offset="1" stop-color="#6400FF"/>
</linearGradient>
<clipPath id="clip0_4_60">
<rect width="32" height="32" rx="5" fill="white"/>
</clipPath>
</defs>
</svg>
